<svg width="461" height="85" viewBox="0 0 461 85" fill="none" xmlns="http://www.w3.org/2000/svg">
<g filter="url(#filter0_d_1_4)">
<mask id="path-1-outside-1_1_4" maskUnits="userSpaceOnUse" x="-10" y="-9.28027" width="475" height="96" fill="black">
<rect fill="white" x="-10" y="-9.28027" width="475" height="96"/>
<path d="M29.9531 0.787109H71.1885L67.4531 26.0557L61.4473 34.1367L65.793 40.3623L61.6426 68.5361L4.46484 73.0771L11.5205 59.4053L37.8145 55.2793L40.9395 42.4375L31.3936 44.293V44.0732L35.959 26.2754H44.8701L46.9453 17.3643H46.7256L25.1924 20.6602L29.9531 0.787109ZM146.237 0.420898V73.1016L123.239 76.8857L125.656 57.5498H118.918L115.036 74.6641L94.2354 71.7832L113.815 2.42285L146.237 0.420898ZM127.365 20.6357L122.287 42.877L127.854 41.3145L130.393 20.6357H127.365ZM192.551 1.39746L195.651 18.6094L208.908 1.39746L227.976 2.22754L219.064 69.5615L191.086 73.9072L199.802 39.3125L188.4 54.2295C185.503 43.4059 184.055 37.8151 184.055 37.457H183.835L176.389 68.3164L150.07 70.6113L173.679 2.44727L192.551 1.39746ZM266.843 3.27734L250.485 69.7812L224.167 71.832L247.36 4.30273L266.843 3.27734ZM314.035 0.567383L314.914 20.4893L288.718 21.9297L285.202 51.7881L295.993 50.8359V50.6162L289.841 48.248L290.061 38.043H312.937L312.717 70.7822L260.568 72.6621V72.4424L272.434 5.57227L314.035 0.567383ZM378.244 0.982422L370.993 67.9014L317.746 72.0518L339.084 1.20215L378.244 0.982422ZM354.001 20.6602L347.58 49.2734L350.9 48.4434L356.491 20.6602H354.001ZM400.095 0.982422H456.027V1.20215L445.261 23.5654H422.458L444.016 43.8779C435.861 61.5537 431.784 70.4648 431.784 70.6113L376.12 70.6602L385.935 48.0283H406.931C394.382 36.7165 388.099 30.9792 388.083 30.8164V30.6211L400.095 0.982422Z"/>
</mask>
<path d="M29.9531 0.787109H71.1885L67.4531 26.0557L61.4473 34.1367L65.793 40.3623L61.6426 68.5361L4.46484 73.0771L11.5205 59.4053L37.8145 55.2793L40.9395 42.4375L31.3936 44.293V44.0732L35.959 26.2754H44.8701L46.9453 17.3643H46.7256L25.1924 20.6602L29.9531 0.787109ZM146.237 0.420898V73.1016L123.239 76.8857L125.656 57.5498H118.918L115.036 74.6641L94.2354 71.7832L113.815 2.42285L146.237 0.420898ZM127.365 20.6357L122.287 42.877L127.854 41.3145L130.393 20.6357H127.365ZM192.551 1.39746L195.651 18.6094L208.908 1.39746L227.976 2.22754L219.064 69.5615L191.086 73.9072L199.802 39.3125L188.4 54.2295C185.503 43.4059 184.055 37.8151 184.055 37.457H183.835L176.389 68.3164L150.07 70.6113L173.679 2.44727L192.551 1.39746ZM266.843 3.27734L250.485 69.7812L224.167 71.832L247.36 4.30273L266.843 3.27734ZM314.035 0.567383L314.914 20.4893L288.718 21.9297L285.202 51.7881L295.993 50.8359V50.6162L289.841 48.248L290.061 38.043H312.937L312.717 70.7822L260.568 72.6621V72.4424L272.434 5.57227L314.035 0.567383ZM378.244 0.982422L370.993 67.9014L317.746 72.0518L339.084 1.20215L378.244 0.982422ZM354.001 20.6602L347.58 49.2734L350.9 48.4434L356.491 20.6602H354.001ZM400.095 0.982422H456.027V1.20215L445.261 23.5654H422.458L444.016 43.8779C435.861 61.5537 431.784 70.4648 431.784 70.6113L376.12 70.6602L385.935 48.0283H406.931C394.382 36.7165 388.099 30.9792 388.083 30.8164V30.6211L400.095 0.982422Z" fill="#FBFEE0"/>
<path d="M29.9531 0.787109V-7.21289H23.6432L22.1732 -1.07662L29.9531 0.787109ZM71.1885 0.787109L79.1025 1.957L80.458 -7.21289H71.1885V0.787109ZM67.4531 26.0557L73.874 30.8277L75.0731 29.2142L75.3671 27.2256L67.4531 26.0557ZM61.4473 34.1367L55.0264 29.3647L51.5887 33.9902L54.8874 38.7158L61.4473 34.1367ZM65.793 40.3623L73.7076 41.5282L74.1703 38.3869L72.3529 35.7832L65.793 40.3623ZM61.6426 68.5361L62.2759 76.511L68.6284 76.0065L69.5572 69.7021L61.6426 68.5361ZM4.46484 73.0771L-2.64429 69.4083L-9.24098 82.1908L5.0982 81.052L4.46484 73.0771ZM11.5205 59.4053L10.2803 51.502L6.27207 52.131L4.41138 55.7365L11.5205 59.4053ZM37.8145 55.2793L39.0546 63.1826L44.326 62.3554L45.5876 57.1709L37.8145 55.2793ZM40.9395 42.4375L48.7126 44.3291L51.6634 32.2033L39.413 34.5845L40.9395 42.4375ZM31.3936 44.293H23.3936V53.9977L32.92 52.146L31.3936 44.293ZM31.3936 44.0732L23.6444 42.0855L23.3936 43.0635V44.0732H31.3936ZM35.959 26.2754V18.2754H29.7521L28.2099 24.2876L35.959 26.2754ZM44.8701 26.2754V34.2754H51.2212L52.6616 28.0899L44.8701 26.2754ZM46.9453 17.3643L54.7368 19.1787L57.0224 9.36426H46.9453V17.3643ZM46.7256 17.3643V9.36426H46.1169L45.5152 9.45635L46.7256 17.3643ZM25.1924 20.6602L17.4125 18.7964L14.6403 30.3684L26.4028 28.5681L25.1924 20.6602ZM29.9531 8.78711H71.1885V-7.21289H29.9531V8.78711ZM63.2745 -0.382786L59.5391 24.8858L75.3671 27.2256L79.1025 1.957L63.2745 -0.382786ZM61.0322 21.2836L55.0264 29.3647L67.8682 38.9087L73.874 30.8277L61.0322 21.2836ZM54.8874 38.7158L59.2331 44.9414L72.3529 35.7832L68.0072 29.5577L54.8874 38.7158ZM57.8784 39.1964L53.728 67.3702L69.5572 69.7021L73.7076 41.5282L57.8784 39.1964ZM61.0092 60.5612L3.83148 65.1023L5.0982 81.052L62.2759 76.511L61.0092 60.5612ZM11.574 76.746L18.6296 63.0741L4.41138 55.7365L-2.64429 69.4083L11.574 76.746ZM12.7607 67.3086L39.0546 63.1826L36.5743 47.376L10.2803 51.502L12.7607 67.3086ZM45.5876 57.1709L48.7126 44.3291L33.1663 40.5459L30.0413 53.3877L45.5876 57.1709ZM39.413 34.5845L29.8671 36.4399L32.92 52.146L42.4659 50.2905L39.413 34.5845ZM39.3936 44.293V44.0732H23.3936V44.293H39.3936ZM39.1427 46.061L43.7081 28.2632L28.2099 24.2876L23.6444 42.0855L39.1427 46.061ZM35.959 34.2754H44.8701V18.2754H35.959V34.2754ZM52.6616 28.0899L54.7368 19.1787L39.1538 15.5498L37.0786 24.4609L52.6616 28.0899ZM46.9453 9.36426H46.7256V25.3643H46.9453V9.36426ZM45.5152 9.45635L23.982 12.7523L26.4028 28.5681L47.936 25.2722L45.5152 9.45635ZM32.9723 22.5239L37.733 2.65084L22.1732 -1.07662L17.4125 18.7964L32.9723 22.5239ZM146.237 0.420898H154.237V-8.08831L145.744 -7.56389L146.237 0.420898ZM146.237 73.1016L147.536 80.9954L154.237 79.8928V73.1016H146.237ZM123.239 76.8857L115.301 75.8935L113.973 86.518L124.538 84.7796L123.239 76.8857ZM125.656 57.5498L133.594 58.5421L134.719 49.5498H125.656V57.5498ZM118.918 57.5498V49.5498H112.529L111.116 55.7802L118.918 57.5498ZM115.036 74.6641L113.939 82.5884L121.213 83.596L122.838 76.4337L115.036 74.6641ZM94.2354 71.7832L86.5362 69.6098L84.0413 78.4477L93.1378 79.7076L94.2354 71.7832ZM113.815 2.42285L113.322 -5.56194L107.658 -5.21219L106.116 0.249432L113.815 2.42285ZM127.365 20.6357V12.6357H120.986L119.566 18.855L127.365 20.6357ZM122.287 42.877L114.488 41.0962L111.492 54.2163L124.449 50.5793L122.287 42.877ZM127.854 41.3145L130.016 49.0168L135.145 47.577L135.794 42.2894L127.854 41.3145ZM130.393 20.6357L138.333 21.6107L139.435 12.6357H130.393V20.6357ZM138.237 0.420898V73.1016H154.237V0.420898H138.237ZM144.938 65.2077L121.94 68.9919L124.538 84.7796L147.536 80.9954L144.938 65.2077ZM131.177 77.878L133.594 58.5421L117.718 56.5575L115.301 75.8935L131.177 77.878ZM125.656 49.5498H118.918V65.5498H125.656V49.5498ZM111.116 55.7802L107.234 72.8945L122.838 76.4337L126.72 59.3194L111.116 55.7802ZM116.134 66.7397L95.3329 63.8588L93.1378 79.7076L113.939 82.5884L116.134 66.7397ZM101.934 73.9566L121.515 4.59627L106.116 0.249432L86.5362 69.6098L101.934 73.9566ZM114.308 10.4076L146.73 8.40569L145.744 -7.56389L113.322 -5.56194L114.308 10.4076ZM119.566 18.855L114.488 41.0962L130.086 44.6577L135.165 22.4165L119.566 18.855ZM124.449 50.5793L130.016 49.0168L125.691 33.6121L120.125 35.1746L124.449 50.5793ZM135.794 42.2894L138.333 21.6107L122.452 19.6608L119.913 40.3395L135.794 42.2894ZM130.393 12.6357H127.365V28.6357H130.393V12.6357ZM192.551 1.39746L200.424 -0.0208454L199.17 -6.98311L192.106 -6.59019L192.551 1.39746ZM195.651 18.6094L187.778 20.0277L190.977 37.7881L201.989 23.491L195.651 18.6094ZM208.908 1.39746L209.256 -6.59497L205.105 -6.77567L202.57 -3.48413L208.908 1.39746ZM227.976 2.22754L235.906 3.27713L237.053 -5.38487L228.324 -5.76489L227.976 2.22754ZM219.064 69.5615L220.292 77.4667L226.21 76.5476L226.995 70.6111L219.064 69.5615ZM191.086 73.9072L183.328 71.9528L180.377 83.6665L192.314 81.8124L191.086 73.9072ZM199.802 39.3125L207.559 41.267L193.446 34.4544L199.802 39.3125ZM188.4 54.2295L180.672 56.298L184.878 72.0114L194.756 59.0875L188.4 54.2295ZM184.055 37.457H192.055V29.457H184.055V37.457ZM183.835 37.457V29.457H177.536L176.058 35.5805L183.835 37.457ZM176.389 68.3164L177.084 76.2862L182.816 75.7863L184.165 70.1929L176.389 68.3164ZM150.07 70.6113L142.511 67.9931L138.473 79.653L150.765 78.5811L150.07 70.6113ZM173.679 2.44727L173.234 -5.54039L167.876 -5.2423L166.119 -0.170921L173.679 2.44727ZM184.678 2.81577L187.778 20.0277L203.525 17.1911L200.424 -0.0208454L184.678 2.81577ZM201.989 23.491L215.246 6.27906L202.57 -3.48413L189.313 13.7278L201.989 23.491ZM208.56 9.38989L227.628 10.22L228.324 -5.76489L209.256 -6.59497L208.56 9.38989ZM220.045 1.17795L211.134 68.5119L226.995 70.6111L235.906 3.27713L220.045 1.17795ZM217.837 61.6563L189.858 66.002L192.314 81.8124L220.292 77.4667L217.837 61.6563ZM198.844 75.8617L207.559 41.267L192.044 37.358L183.328 71.9528L198.844 75.8617ZM193.446 34.4544L182.044 49.3714L194.756 59.0875L206.158 44.1706L193.446 34.4544ZM196.128 52.161C194.681 46.7545 193.601 42.6758 192.885 39.9122C192.526 38.5255 192.266 37.4999 192.099 36.814C192.014 36.4647 191.964 36.2495 191.94 36.1376C191.927 36.0761 191.933 36.1007 191.947 36.1767C191.953 36.2133 191.971 36.3159 191.99 36.4579C191.999 36.5276 192.055 36.93 192.055 37.457H176.055C176.055 38.0065 176.113 38.4415 176.128 38.554C176.152 38.7387 176.179 38.8945 176.197 38.9943C176.233 39.1968 176.273 39.3888 176.305 39.5356C176.371 39.8403 176.457 40.2051 176.553 40.5994C176.749 41.4008 177.032 42.5165 177.397 43.9252C178.129 46.7524 179.222 50.8809 180.672 56.298L196.128 52.161ZM184.055 29.457H183.835V45.457H184.055V29.457ZM176.058 35.5805L168.612 66.4399L184.165 70.1929L191.612 39.3336L176.058 35.5805ZM175.694 60.3466L149.375 62.6416L150.765 78.5811L177.084 76.2862L175.694 60.3466ZM157.63 73.2295L181.238 5.06545L166.119 -0.170921L142.511 67.9931L157.63 73.2295ZM174.123 10.4349L192.995 9.38511L192.106 -6.59019L173.234 -5.54039L174.123 10.4349ZM266.843 3.27734L274.611 5.18809L277.186 -5.27808L266.422 -4.7116L266.843 3.27734ZM250.485 69.7812L251.107 77.7571L256.873 77.3078L258.254 71.692L250.485 69.7812ZM224.167 71.832L216.601 69.2334L212.644 80.7542L224.788 79.8079L224.167 71.832ZM247.36 4.30273L246.94 -3.68621L241.548 -3.40243L239.794 1.70408L247.36 4.30273ZM259.074 1.3666L242.717 67.8705L258.254 71.692L274.611 5.18809L259.074 1.3666ZM249.864 61.8054L223.546 63.8562L224.788 79.8079L251.107 77.7571L249.864 61.8054ZM231.733 74.4307L254.927 6.90138L239.794 1.70408L216.601 69.2334L231.733 74.4307ZM247.781 12.2917L267.263 11.2663L266.422 -4.7116L246.94 -3.68621L247.781 12.2917ZM314.035 0.567383L322.027 0.214785L321.647 -8.40605L313.08 -7.37535L314.035 0.567383ZM314.914 20.4893L315.353 28.4772L323.255 28.0427L322.906 20.1367L314.914 20.4893ZM288.718 21.9297L288.279 13.9418L281.56 14.3112L280.773 20.9942L288.718 21.9297ZM285.202 51.7881L277.257 50.8526L276.107 60.6217L285.905 59.7571L285.202 51.7881ZM295.993 50.8359L296.696 58.805L303.993 58.1611V50.8359H295.993ZM295.993 50.6162H303.993V45.1234L298.867 43.1502L295.993 50.6162ZM289.841 48.248L281.843 48.0758L281.722 53.695L286.967 55.714L289.841 48.248ZM290.061 38.043V30.043H282.231L282.062 37.8708L290.061 38.043ZM312.937 38.043L320.936 38.0967L320.99 30.043H312.937V38.043ZM312.717 70.7822L313.005 78.777L320.665 78.5009L320.717 70.8359L312.717 70.7822ZM260.568 72.6621H252.568V80.9557L260.857 80.6569L260.568 72.6621ZM260.568 72.4424L252.691 71.0447L252.568 71.7381V72.4424H260.568ZM272.434 5.57227L271.478 -2.37046L265.592 -1.66238L264.557 4.1746L272.434 5.57227ZM306.043 0.919981L306.922 20.8419L322.906 20.1367L322.027 0.214785L306.043 0.919981ZM314.475 12.5013L288.279 13.9418L289.157 29.9176L315.353 28.4772L314.475 12.5013ZM280.773 20.9942L277.257 50.8526L293.147 52.7236L296.663 22.8652L280.773 20.9942ZM285.905 59.7571L296.696 58.805L295.29 42.8669L284.499 43.819L285.905 59.7571ZM303.993 50.8359V50.6162H287.993V50.8359H303.993ZM298.867 43.1502L292.715 40.782L286.967 55.714L293.119 58.0822L298.867 43.1502ZM297.839 48.4203L298.059 38.2152L282.062 37.8708L281.843 48.0758L297.839 48.4203ZM290.061 46.043H312.937V30.043H290.061V46.043ZM304.937 37.9893L304.717 70.7285L320.717 70.8359L320.936 38.0967L304.937 37.9893ZM312.429 62.7874L260.28 64.6673L260.857 80.6569L313.005 78.777L312.429 62.7874ZM268.568 72.6621V72.4424H252.568V72.6621H268.568ZM268.445 73.84L280.311 6.96993L264.557 4.1746L252.691 71.0447L268.445 73.84ZM273.389 13.515L314.991 8.51011L313.08 -7.37535L271.478 -2.37046L273.389 13.515ZM378.244 0.982422L386.198 1.84422L387.163 -7.06775L378.199 -7.01745L378.244 0.982422ZM370.993 67.9014L371.615 75.8772L378.232 75.3614L378.947 68.7632L370.993 67.9014ZM317.746 72.0518L310.086 69.7447L306.716 80.9358L318.368 80.0276L317.746 72.0518ZM339.084 1.20215L339.039 -6.79773L333.128 -6.76456L331.424 -1.10487L339.084 1.20215ZM354.001 20.6602V12.6602H347.597L346.195 18.9085L354.001 20.6602ZM347.58 49.2734L339.774 47.5218L336.933 60.1813L349.52 57.0346L347.58 49.2734ZM350.9 48.4434L352.841 56.2045L357.746 54.9782L358.743 50.0216L350.9 48.4434ZM356.491 20.6602L364.334 22.2384L366.261 12.6602H356.491V20.6602ZM370.291 0.120628L363.04 67.0396L378.947 68.7632L386.198 1.84422L370.291 0.120628ZM370.371 59.9256L317.124 64.076L318.368 80.0276L371.615 75.8772L370.371 59.9256ZM325.406 74.3588L346.744 3.50916L331.424 -1.10487L310.086 69.7447L325.406 74.3588ZM339.129 9.20202L378.289 8.9823L378.199 -7.01745L339.039 -6.79773L339.129 9.20202ZM346.195 18.9085L339.774 47.5218L355.386 51.0251L361.807 22.4118L346.195 18.9085ZM349.52 57.0346L352.841 56.2045L348.96 40.6822L345.64 41.5123L349.52 57.0346ZM358.743 50.0216L364.334 22.2384L348.648 19.082L343.058 46.8652L358.743 50.0216ZM356.491 12.6602H354.001V28.6602H356.491V12.6602ZM400.095 0.982422V-7.01758H394.705L392.68 -2.02237L400.095 0.982422ZM456.027 0.982422H464.027V-7.01758H456.027V0.982422ZM456.027 1.20215L463.235 4.67244L464.027 3.02764V1.20215H456.027ZM445.261 23.5654V31.5654H450.288L452.469 27.0357L445.261 23.5654ZM422.458 23.5654V15.5654H402.302L416.972 29.3879L422.458 23.5654ZM444.016 43.8779L451.28 47.2291L453.691 42.0026L449.502 38.0554L444.016 43.8779ZM431.784 70.6113L431.791 78.6113L439.784 78.6043V70.6113H431.784ZM376.12 70.6602L368.781 67.4773L363.926 78.6709L376.127 78.6602L376.12 70.6602ZM385.935 48.0283V40.0283H380.684L378.595 44.8455L385.935 48.0283ZM406.931 48.0283V56.0283H427.754L412.287 42.0862L406.931 48.0283ZM388.083 30.8164H380.083V31.2154L380.123 31.6124L388.083 30.8164ZM388.083 30.6211L380.669 27.6163L380.083 29.0616V30.6211H388.083ZM400.095 8.98242H456.027V-7.01758H400.095V8.98242ZM448.027 0.982422V1.20215H464.027V0.982422H448.027ZM448.819 -2.26814L438.053 20.0951L452.469 27.0357L463.235 4.67244L448.819 -2.26814ZM445.261 15.5654H422.458V31.5654H445.261V15.5654ZM416.972 29.3879L438.529 49.7004L449.502 38.0554L427.944 17.7429L416.972 29.3879ZM436.751 40.5267C432.673 49.3664 429.611 56.0223 427.567 60.4897C426.546 62.721 425.774 64.4191 425.254 65.5744C424.996 66.1477 424.789 66.6115 424.642 66.948C424.572 67.1092 424.496 67.2847 424.431 67.4443C424.402 67.5144 424.346 67.653 424.286 67.8155C424.26 67.8875 424.197 68.0591 424.131 68.2776C424.099 68.3837 424.039 68.5895 423.98 68.8519C423.95 68.9841 423.784 69.6923 423.784 70.6113H439.784C439.784 71.5281 439.619 72.2329 439.59 72.3606C439.532 72.6187 439.473 72.819 439.443 72.9185C439.381 73.1239 439.325 73.278 439.306 73.3284C439.281 73.397 439.261 73.4478 439.252 73.4707C439.242 73.4965 439.235 73.5133 439.233 73.518C439.231 73.5224 439.251 73.4741 439.309 73.3431C439.417 73.0952 439.592 72.7007 439.844 72.1418C440.343 71.0327 441.099 69.3708 442.117 67.1465C444.15 62.7028 447.204 56.0653 451.28 47.2291L436.751 40.5267ZM431.777 62.6113L376.113 62.6602L376.127 78.6602L431.791 78.6113L431.777 62.6113ZM383.46 73.843L393.274 51.2112L378.595 44.8455L368.781 67.4773L383.46 73.843ZM385.935 56.0283H406.931V40.0283H385.935V56.0283ZM412.287 42.0862C406.016 36.4329 401.323 32.1847 398.202 29.3341C396.637 27.9052 395.488 26.8469 394.739 26.1451C394.358 25.7876 394.119 25.5592 393.992 25.4344C393.917 25.3612 393.944 25.3849 394.017 25.4636C394.04 25.4884 394.181 25.6391 394.356 25.858C394.434 25.9557 394.635 26.2116 394.859 26.5666C394.97 26.7437 395.165 27.067 395.361 27.496C395.512 27.8278 395.916 28.7516 396.043 30.0204L380.123 31.6124C380.25 32.8838 380.655 33.8108 380.808 34.1464C381.006 34.5794 381.203 34.9073 381.318 35.0897C381.548 35.4552 381.759 35.7244 381.85 35.838C382.05 36.0889 382.229 36.2824 382.302 36.3609C382.475 36.5471 382.65 36.7217 382.774 36.8431C383.043 37.1074 383.395 37.4423 383.801 37.8224C384.627 38.5956 385.836 39.7091 387.412 41.1488C390.573 44.0355 395.297 48.3119 401.574 53.9705L412.287 42.0862ZM396.083 30.8164V30.6211H380.083V30.8164H396.083ZM395.497 33.6259L407.509 3.98721L392.68 -2.02237L380.669 27.6163L395.497 33.6259Z" fill="#F8344A" mask="url(#path-1-outside-1_1_4)"/>
</g>
<defs>
<filter id="filter0_d_1_4" x="0.464844" y="0.420898" width="459.562" height="84.4648" filterUnits="userSpaceOnUse" color-interpolation-filters="sRGB">
<feFlood flood-opacity="0" result="BackgroundImageFix"/>
<feColorMatrix in="SourceAlpha" type="matrix" values="0 0 0 0 0 0 0 0 0 0 0 0 0 0 0 0 0 0 127 0" result="hardAlpha"/>
<feOffset dy="4"/>
<feGaussianBlur stdDeviation="2"/>
<feComposite in2="hardAlpha" operator="out"/>
<feColorMatrix type="matrix" values="0 0 0 0 0 0 0 0 0 0 0 0 0 0 0 0 0 0 0.25 0"/>
<feBlend mode="normal" in2="BackgroundImageFix" result="effect1_dropShadow_1_4"/>
<feBlend mode="normal" in="SourceGraphic" in2="effect1_dropShadow_1_4" result="shape"/>
</filter>
</defs>
</svg>
